Patient4_TMGait_0pt4_02_right_39_EMG.mot
version=1
nRows=33
nColumns=33
inDegrees=no
endheader
time	1LAddLong	2LGlutMax	3LGlutMed	4LIliopsoas	5LSemiMemb	6LBicFemLong	7LRecFem	8LVastMed	9LVastLat	10LGasMed	11LTibAnt	12lTibPost	13LPeroneusLong	14LSol	15LExtDigLong	16LFlexDigLong	17RAddLong	18RGlutMax	19RGlutMed	20RIliopsoas	21RSemiMemb	22RBicFemLong	23RRecFem	24RVastMed	25RVastLat	26RGasMed	27RTibAnt	28RTibPost	29RPeroneusLong	30RSol	31RExtDigLong	32RFlexDigLong
51.91	0.002441	0.080261	0.008698	0.012665	-0.001984	-0.039063	-0.083466	0.005646	0.08255	0.015564	-0.14236	-0.01297	-0.10117	0.021667	-0.12802	0.015564	0.017548	-0.74753	-0.32288	0.11047	-0.22568	-0.20432	0.080872	0.10941	0.014496	-0.2124	0.031891	-0.27649	0.12589	0.058136	-0.005493	-0.021515
51.911	-0.006714	0.063629	0.001831	0.020752	-0.006104	-0.044556	-0.046082	0.009613	0.074158	0.026398	-0.12772	-0.010223	-0.074005	0.013733	-0.059662	0.011444	-0.05722	-0.63309	-0.04837	0.09613	-0.22675	-0.35065	0.060272	0.10712	0.004272	-0.17258	-0.056305	-0.061035	0.41412	-0.64957	-0.004578	-0.030212
51.912	-0.01358	0.071106	-0.01358	0.004578	-0.001678	-0.042725	-0.007782	0.001831	0.093079	0.023041	0.11917	-0.006104	-0.05661	-0.05127	0.13534	-0.002136	-0.12466	-0.64667	-0.21347	0.033722	-0.25375	-0.23178	0.082703	0.13016	-0.005798	-0.095825	-0.029449	0.037384	0.92117	-1.1079	-0.002136	-0.022125
51.913	0.003052	0.075684	-0.027924	0.00061	-0.010223	-0.024414	0.019073	0.001221	0.099487	0.022736	0.18463	-0.009918	-0.072632	-0.11963	-0.23041	0.002289	-0.056305	-0.70725	-0.55527	-0.00946	0.055237	-0.10101	0.15808	0.081024	-0.042114	-0.016174	0.02182	0.16998	0.8017	-0.58136	-0.005188	-0.025024
51.914	-0.002136	0.09491	-0.029755	0.01297	-0.003967	-0.023956	0.031281	-0.002289	0.1001	0.025482	0.14008	-0.009613	-0.094299	-0.072937	-0.16739	0.005035	-0.033417	-0.80688	-0.76981	-0.005341	0.24551	-0.096283	0.19898	0.10101	-0.050812	-0.09079	0.062866	0.15823	-0.15839	0.69046	-0.000763	-0.027313
51.915	0.000153	0.085602	-0.050354	0.036011	-0.001526	-0.025635	0.029297	0.001831	0.10284	0.007324	-0.039215	-0.009003	-0.03952	0.044403	0.055084	0.018005	0.011292	-0.82169	-0.58807	0.010529	0.40939	-0.25696	0.26169	-0.0177	-0.059204	-0.047913	0.064087	0.012512	-0.45853	0.40619	-0.00412	-0.024261
51.916	0.000916	0.088043	-0.050201	0.02655	-0.006104	-0.017395	0.051575	-0.001678	0.10315	0.007935	-0.037384	-0.007019	-0.069275	0.11414	0.4155	0.008698	0.035858	-0.73013	-0.77072	0.014038	0.36453	-0.49347	0.26245	-0.028839	-0.029144	0.088043	0.058441	0.092773	-0.57205	0.24292	-0.008087	-0.005035
51.917	0.005798	0.069275	-0.024567	-0.006104	-0.009003	-0.024414	0.04837	-0.004425	0.098419	0.01709	-0.033264	0.001221	-0.088959	0.084534	0.26428	0.024109	0.041351	-0.77118	-0.51041	-0.051422	0.12543	-0.53009	0.28824	-0.088806	-0.046234	0.14511	0.017548	0.081329	-0.25131	0.24277	-0.004578	0.005646
51.918	0.004425	0.065613	-0.048065	-0.026093	-0.006866	-0.015411	0.055389	-0.001678	0.098877	0.019684	-0.01709	-0.007019	-0.088348	0.052338	0.20783	0.008392	0.065155	-0.81314	-0.29114	-0.042877	-0.29022	-0.39093	0.36728	-0.13107	-0.052948	0.03006	0.00351	0.006561	0.045013	1.1365	-0.004425	0.010071
51.919	0.009308	0.051422	-0.070496	-0.022278	-0.007629	-0.035553	0.048676	-0.004425	0.088806	0.031738	0.018463	-0.001678	-0.11795	0.081177	0.25864	0.01709	-0.002441	-0.88104	0.14542	0.05127	-0.49393	-0.12344	0.34988	-0.042267	-0.029449	-0.048828	0.036316	0.052185	-0.10223	1.0126	-0.001373	0.002136
51.92	0.006104	0.046692	-0.082245	-0.020599	-0.008392	-0.032654	0.0383	-0.00061	0.075684	0.028076	0.16632	-0.009155	-0.073547	0.064392	0.030212	0.020447	-0.081482	-0.88608	0.25925	0.086365	0.13397	-0.068054	0.3215	0.018158	-0.022125	-0.076752	0.059662	-0.037079	0.13031	0.32333	-0.00412	0.007172
51.921	-0.00351	0.053711	-0.090179	0.020752	0.005341	-0.04303	0.04364	-0.002747	0.071564	0.037384	0.15396	-0.011139	-0.048065	-0.009766	0.11215	0.003204	-0.039825	-0.80414	0.02594	0.018311	0.11643	0.13626	0.32394	-0.003662	-0.017242	0.012665	0.064392	0.060577	0.26947	-0.075073	-0.008698	0.00061
51.922	0.000763	0.045013	-0.078125	0.057068	-0.003052	-0.034943	0.074768	-0.005341	0.058899	-0.020599	0.11963	-0.000763	-0.086212	0.034027	-0.097809	0.005798	-0.032806	-0.6514	0.059967	-0.094147	-0.27283	0.42191	0.27069	0.005035	0.028381	0.13504	0.068665	-0.020294	0.48233	0.081482	-0.00412	0.004272
51.923	-0.004883	0.035095	-0.057831	0.047607	-0.000305	-0.021667	0.11978	-0.004272	0.058746	-0.016022	-0.1236	0.000458	-0.13031	0.039825	-0.13626	0.006561	-0.057068	-0.61798	-0.70175	-0.001526	0.048065	0.38086	0.19562	0.078583	0.057068	0.12039	0.074463	-0.044098	0.28412	0.10498	-0.002747	-0.004578
51.924	0.005646	0.013123	-0.031891	0.003052	0.006256	-0.019073	0.15717	-0.003357	0.059509	-0.035858	0.1059	0.000763	-0.063019	0.14832	0.005188	0.006409	-0.052032	-0.48935	-0.94818	0.007629	0.44235	0.23834	0.1294	0.090179	-0.038757	0.051422	0.12726	0.010681	-0.29343	0.10208	-0.004425	0.003967
51.925	0.006409	0.032806	-0.009918	-0.020142	0.004425	-0.016174	0.27115	-0.00473	0.054321	-0.016174	0.20386	-0.010223	-0.076599	0.13886	0.10284	0.008698	-0.025787	-0.33157	-0.28519	0.008392	0.18021	0.32013	0.19486	0.093689	-0.066986	0.050354	0.14038	0.011597	-0.074921	0.00885	-0.007172	0.007782
51.926	0.006866	0.026093	-0.002899	0.006256	0.006866	-0.050049	0.29022	-0.012054	0.054626	0.016174	0.085449	-0.000305	-0.10834	0.029907	-0.17471	-0.013733	0.001831	-0.18555	0.32364	0.02243	0.036011	0.18585	0.24078	0.014343	-0.097504	0.025787	0.11276	-0.10437	-0.090485	-0.058899	-0.002136	0.005951
51.927	-0.000153	0.031586	-0.026398	-0.004883	0.003815	-0.02594	0.29648	-0.005341	0.041962	-0.001068	-0.043182	-0.002594	-0.053711	0.07431	0.18601	0.000458	-0.006409	-0.14206	0.36011	-0.028992	-0.033264	0.10803	0.15778	0.000153	-0.04776	-0.020142	0.12543	-0.34012	-0.44647	-0.31235	-0.002441	0.005035
51.928	-0.010376	0.011597	-0.005951	-0.022125	0.005035	-0.042877	0.30579	-0.010986	0.053864	-0.013428	-0.22873	-0.005951	-0.038757	0.02594	0.57205	0.007172	-0.031433	-0.1445	0.016937	-0.006104	-0.016479	0.10132	0.11963	0.02182	0.018463	-0.023804	0.07431	0.054779	0.37476	-0.12299	-0.002594	0.006104
51.929	0.001221	-0.014648	0.037384	-0.001373	0.006409	-0.0383	0.30701	-0.006104	0.052032	-0.040436	-0.16846	-0.002441	-0.019226	0.036469	0.43549	0.005798	-0.02594	-0.11032	0.01297	-0.061493	-0.027771	0.10193	0.048981	-0.023956	0.071716	-0.008087	0.11063	0.10742	0.33691	0.1152	-0.007629	0.017395
51.93	-0.008392	-0.047607	0.005951	-0.004578	0.000916	-0.043793	0.30365	-0.010376	0.066528	-0.044556	0.041962	-0.006866	0.012207	0.083618	-0.36911	-0.006866	0.003204	-0.18951	0.011902	-0.060577	-0.05722	0.13397	-0.14969	-0.057678	0.11887	-0.013733	0.12116	-0.004425	0.53665	0.20401	-0.007935	0.021057
51.931	-0.002136	0.002441	0.016174	0.011597	-0.002136	-0.034332	0.27802	-0.005493	0.053406	-0.094757	0.22644	-0.005188	0.023346	0.18814	0.26642	-0.004272	0.025177	-0.014343	0.5545	-0.094604	-0.16235	0.16998	-0.1329	0.04837	0.10605	-0.002136	0.097198	-0.002594	0.64896	0.12405	-0.007477	0.014954
51.932	-0.013428	0.015564	0.018921	0.00351	0.003815	-0.031891	0.30243	0.001678	0.04364	-0.065613	0.11597	-0.00351	0.00824	0.14328	-0.77484	-0.009613	0.053558	0.26321	1.097	-0.097351	-0.13519	0.19257	0.10269	0.063629	0.075378	0.01709	0.077362	-0.019836	-0.36407	0.067444	-0.007629	0.020752
51.933	-0.00885	0.002136	0.029907	0.015717	0.000763	-0.031891	0.25223	0.003662	0.039825	-0.023193	-0.2005	-0.007477	-0.025024	0.073547	-0.37125	-0.021057	0.003967	0.35309	0.74265	-0.092468	0.10635	0.30029	0.016174	0.091858	0.044861	0.029144	0.061646	-0.001984	-0.88943	0.052032	-0.010071	0.017853
51.934	-0.014801	-0.036163	0.019226	0.012207	-0.003052	-0.019073	0.23544	0.007629	0.038147	-0.019379	-0.26947	-0.005646	-0.055695	0.054474	-0.50125	-0.013275	-0.015869	0.3595	-0.18936	0.027771	-0.011597	0.18646	-0.02594	0.082855	-0.01297	0.023346	0.1001	-0.00473	-0.14358	-0.080719	-0.006256	0.024261
51.935	-0.010376	-0.014343	-0.006104	-0.001526	0.001526	-0.014343	0.20508	0.012512	0.043182	-0.016327	-0.2742	-0.001221	-0.035248	0.015564	-0.47882	-0.003815	-0.003052	0.28946	-0.54504	0.13306	-0.092468	-0.11032	0.040131	-0.071564	0.001221	0.020447	0.055237	-0.048523	0.84488	-0.22278	-0.007019	0.019684
51.936	0.009918	0.007782	0.001526	-0.001526	0.000305	-0.002899	0.069122	0.010529	0.067444	-0.038147	-0.25284	-0.009003	0.044403	-0.031433	-0.51071	-0.024567	0.029907	0.25803	-0.81299	0.12894	-0.032043	-0.16541	0.067444	-0.093384	0.013885	0.024109	0.067444	-0.011597	0.44922	-0.44601	-0.006561	0.01297
51.937	0.01358	-0.013885	0.033875	0.006104	-0.003052	-0.015869	-0.019073	0.005798	0.084686	-0.019226	-0.15167	-0.00061	0.003662	-0.011749	-0.23148	-0.021667	0.026703	0.21378	-0.8342	-0.10346	-0.024872	-0.036926	0.035706	-0.084686	0.001984	0.019379	0.17441	0.028687	-1.2767	-0.20294	-0.00412	0.012817
51.938	-0.035858	0.002747	-0.01709	-0.00824	-0.010681	-0.009003	-0.024261	0.006714	0.1149	0.012665	-0.019379	-0.000763	-0.063171	-0.085144	0.17685	-0.014191	0.021667	0.026703	-1.3127	-0.33356	0.006256	-0.018005	-0.025635	-0.047302	0.023804	0.004578	0.080414	-0.005341	-1.1681	-0.11581	0.001068	0.008392
51.939	0.009766	-0.007172	-0.039063	-0.022125	0.002441	-0.015259	0.038147	-0.002441	0.1384	-0.011902	0.1329	-0.006561	-0.068817	-0.080566	0.522	-0.002594	0.027161	0.050354	-1.7316	-0.30807	0.15091	-0.13351	-0.11505	0.001221	0.097656	0.00824	0.036011	0.001068	-1.4275	-0.23071	-0.005646	0.013885
51.94	-0.007019	-0.016327	0.001831	-0.018768	0.002747	-0.032043	0.16342	0.019531	0.13901	-0.028381	0.30273	0.002747	-0.074921	0.011139	0.52521	-0.007935	0.019836	0.077667	-1.5532	-0.16708	0.001831	-0.11276	-0.11993	0.019073	0.06546	-0.002594	0.032501	-0.006256	-0.54627	-0.18295	-0.010681	0.004272
51.941	-0.002899	-0.024414	0.037994	-0.006256	-0.003052	-0.019226	0.23438	-0.006256	0.12772	-0.021667	0.22537	-0.000763	-0.10925	0.096436	0.1297	-0.006104	-0.015411	0.025787	-0.80292	0.1651	-0.16861	-0.062256	-0.13763	-0.02121	0.035095	-0.02594	-0.15228	-0.010529	-0.014954	-0.095978	-0.006561	-0.003815
51.942	-0.004883	-0.007629	0.036926	0.021057	0.001526	0.005188	0.14008	-0.001373	0.11826	-0.036011	-0.039825	0.007019	-0.020599	0.024261	0.13901	0.009155	-0.033569	-0.049133	-0.71213	0.31036	-0.13519	-0.066833	-0.16739	0.032349	0.071411	-0.048218	-0.16266	-0.009918	2.6384	-0.077057	-0.002441	0.001831
